# Blender v2.79 (sub 0) OBJ File: 'projekt.blend'
# www.blender.org
o godzinowa_Cube.006
v -0.016717 0.002196 0.012693
v -0.016717 0.377804 0.012693
v -0.016717 0.002196 -0.012693
v -0.016717 0.377804 -0.012693
v 0.016717 0.002196 0.012693
v 0.016717 0.377804 0.012693
v 0.016717 0.002196 -0.012693
v 0.016717 0.377804 -0.012693
vt 0.645016 0.000000
vt 0.822509 1.000000
vt 0.645020 1.000000
vt 0.233763 0.000000
vt 0.467523 0.999999
vt 0.233763 0.999999
vt 0.467523 0.000000
vt 0.645016 1.000000
vt 0.000000 0.000000
vt 0.233763 1.000000
vt 0.000002 1.000000
vt 1.000000 0.178025
vt 0.822509 0.089013
vt 1.000000 0.089013
vt 0.822509 0.000000
vt 1.000000 0.089013
vt 0.822509 0.089013
vt 0.645015 0.000000
vt 0.233761 0.000000
vt 0.822509 0.178025
vt 1.000000 0.000000
vn -1.0000 0.0000 0.0000
vn 0.0000 0.0000 -1.0000
vn 1.0000 0.0000 0.0000
vn 0.0000 0.0000 1.0000
vn 0.0000 -1.0000 0.0000
vn 0.0000 1.0000 0.0000
s off
f 2/1/1 3/2/1 1/3/1
f 4/4/2 7/5/2 3/6/2
f 8/7/3 5/8/3 7/5/3
f 6/9/4 1/10/4 5/11/4
f 7/12/5 1/13/5 3/14/5
f 4/15/6 6/16/6 8/17/6
f 2/1/1 4/15/1 3/2/1
f 4/4/2 8/7/2 7/5/2
f 8/7/3 6/18/3 5/8/3
f 6/9/4 2/19/4 1/10/4
f 7/12/5 5/20/5 1/13/5
f 4/15/6 2/21/6 6/16/6
