# Blender v2.79 (sub 0) OBJ File: 'projekt.blend'
# www.blender.org
o minutowa_Cube.007
v -0.008832 0.003197 0.010330
v -0.008832 0.536802 0.010330
v -0.008832 0.003197 -0.010330
v -0.008832 0.536802 -0.010330
v 0.008832 0.003197 0.010330
v 0.008832 0.536802 0.010330
v 0.008832 0.003197 -0.010330
v 0.008832 0.536802 -0.010330
vt 0.000000 0.000000
vt 0.219066 1.000000
vt 0.000001 1.000000
vt 0.625421 0.000000
vt 0.812710 1.000000
vt 0.625420 1.000000
vt 0.438130 1.000000
vt 0.219066 0.000000
vt 0.438130 0.000000
vt 0.438130 0.000000
vt 0.625420 1.000000
vt 0.438131 1.000000
vt 1.000000 0.038718
vt 0.812710 0.077435
vt 0.812710 0.038718
vt 0.812710 0.038718
vt 1.000000 0.000000
vt 1.000000 0.038718
vt 0.219065 0.000000
vt 0.812710 0.000000
vt 0.219066 1.000000
vt 0.625420 0.000000
vt 1.000000 0.077435
vt 0.812710 0.000000
vn -1.0000 0.0000 0.0000
vn 0.0000 0.0000 -1.0000
vn 1.0000 0.0000 0.0000
vn 0.0000 0.0000 1.0000
vn 0.0000 -1.0000 0.0000
vn 0.0000 1.0000 0.0000
s off
f 2/1/1 3/2/1 1/3/1
f 4/4/2 7/5/2 3/6/2
f 8/7/3 5/8/3 7/9/3
f 6/10/4 1/11/4 5/12/4
f 7/13/5 1/14/5 3/15/5
f 4/16/6 6/17/6 8/18/6
f 2/1/1 4/19/1 3/2/1
f 4/4/2 8/20/2 7/5/2
f 8/7/3 6/21/3 5/8/3
f 6/10/4 2/22/4 1/11/4
f 7/13/5 5/23/5 1/14/5
f 4/16/6 2/24/6 6/17/6
