# Blender v2.79 (sub 0) OBJ File: 'projekt.blend'
# www.blender.org
o sekundowa_Cube.005
v -0.008832 0.000680 0.004877
v -0.008832 0.679319 0.004877
v -0.008832 0.000680 -0.004877
v -0.008832 0.679319 -0.004877
v 0.008832 0.000680 0.004877
v 0.008832 0.679319 0.004877
v 0.008832 0.000680 -0.004877
v 0.008832 0.679319 -0.004877
vt 0.697957 0.000000
vt 0.848979 0.999999
vt 0.697958 0.999999
vt 0.000000 0.000000
vt 0.273467 1.000000
vt 0.000000 1.000000
vt 0.546933 0.000000
vt 0.697957 0.999999
vt 0.546934 0.999999
vt 0.273467 0.000000
vt 0.546933 0.999999
vt 0.273467 0.999999
vt 1.000000 0.052055
vt 0.848979 0.026027
vt 0.999999 0.026027
vt 0.848979 0.000000
vt 1.000000 0.026027
vt 0.848980 0.026027
vt 0.273467 0.000000
vt 0.697955 0.000000
vt 0.546933 0.000000
vt 0.848980 0.052055
vt 0.999999 0.000000
vn -1.0000 0.0000 0.0000
vn 0.0000 0.0000 -1.0000
vn 1.0000 0.0000 0.0000
vn 0.0000 0.0000 1.0000
vn 0.0000 -1.0000 0.0000
vn 0.0000 1.0000 0.0000
s off
f 2/1/1 3/2/1 1/3/1
f 4/4/2 7/5/2 3/6/2
f 8/7/3 5/8/3 7/9/3
f 6/10/4 1/11/4 5/12/4
f 7/13/5 1/14/5 3/15/5
f 4/16/6 6/17/6 8/18/6
f 2/1/1 4/16/1 3/2/1
f 4/4/2 8/19/2 7/5/2
f 8/7/3 6/20/3 5/8/3
f 6/10/4 2/21/4 1/11/4
f 7/13/5 5/22/5 1/14/5
f 4/16/6 2/23/6 6/17/6
