# Blender v2.79 (sub 0) OBJ File: 'projekt.blend'
# www.blender.org
o wahadlo_Cylinder.002
v -0.072778 -0.011598 0.048052
v -0.072778 -0.011598 -0.052694
v 0.072546 -0.011598 0.048052
v 0.072546 -0.011598 -0.052694
v -0.083349 -1.043533 0.000273
v 0.083385 -1.043533 0.000273
v -0.083349 -1.048954 -0.056502
v 0.083385 -1.048954 -0.056502
v -0.083349 -1.065022 -0.111226
v 0.083385 -1.065022 -0.111226
v -0.083349 -1.091157 -0.161919
v 0.083385 -1.091157 -0.161919
v -0.083349 -1.126413 -0.206751
v 0.083385 -1.126413 -0.206751
v -0.083349 -1.169516 -0.244100
v 0.083385 -1.169516 -0.244100
v -0.083349 -1.218908 -0.272617
v 0.083385 -1.218908 -0.272617
v -0.083349 -1.272805 -0.291271
v 0.083385 -1.272805 -0.291271
v -0.083349 -1.329258 -0.299387
v 0.083385 -1.329258 -0.299387
v -0.083349 -1.386227 -0.296674
v 0.083385 -1.386227 -0.296674
v -0.083349 -1.441653 -0.283227
v 0.083385 -1.441653 -0.283227
v -0.083349 -1.493533 -0.259535
v 0.083385 -1.493533 -0.259535
v -0.083349 -1.539991 -0.226452
v 0.083385 -1.539991 -0.226452
v -0.083349 -1.579349 -0.185175
v 0.083385 -1.579349 -0.185175
v -0.083349 -1.610183 -0.137195
v 0.083385 -1.610183 -0.137195
v -0.083349 -1.631381 -0.084247
v 0.083385 -1.631381 -0.084247
v -0.083349 -1.642174 -0.028244
v 0.083385 -1.642174 -0.028244
v -0.083349 -1.642174 0.028790
v 0.083385 -1.642174 0.028790
v -0.083349 -1.631381 0.084793
v 0.083385 -1.631381 0.084793
v -0.083349 -1.610183 0.137741
v 0.083385 -1.610183 0.137741
v -0.083349 -1.579349 0.185721
v 0.083385 -1.579349 0.185721
v -0.083349 -1.539991 0.226998
v 0.083385 -1.539991 0.226998
v -0.083349 -1.493532 0.260081
v 0.083385 -1.493532 0.260081
v -0.083349 -1.441653 0.283773
v 0.083385 -1.441653 0.283773
v -0.083349 -1.386227 0.297220
v 0.083385 -1.386227 0.297220
v -0.083349 -1.329258 0.299933
v 0.083385 -1.329258 0.299933
v -0.083349 -1.272805 0.291816
v 0.083385 -1.272805 0.291816
v -0.083349 -1.218908 0.273162
v 0.083385 -1.218908 0.273162
v -0.083349 -1.169516 0.244646
v 0.083385 -1.169516 0.244646
v -0.083349 -1.126412 0.207296
v 0.083385 -1.126412 0.207296
v -0.083349 -1.091157 0.162465
v 0.083385 -1.091157 0.162465
v -0.083349 -1.065022 0.111771
v 0.083385 -1.065022 0.111771
v -0.083349 -1.048954 0.057048
v 0.083385 -1.048954 0.057048
v -0.072778 -1.043533 0.000273
v -0.072778 -1.048095 0.048052
v 0.072546 -1.048095 0.048052
v 0.072546 -1.048590 -0.052694
v 0.072546 -1.043533 0.000273
v -0.072778 -1.048590 -0.052694
vt 0.163987 0.569279
vt 0.134647 0.664649
vt 0.134648 0.569279
vt 0.069512 0.721210
vt 0.067324 0.717575
vt 0.100985 0.717575
vt 0.100986 0.664514
vt 0.067324 0.664514
vt 0.100986 0.614479
vt 0.067324 0.614479
vt 0.100986 0.569279
vt 0.134647 0.569279
vt 0.100986 0.608724
vt 0.134647 0.608724
vt 0.100986 0.654483
vt 0.134647 0.654483
vt 0.100986 0.704904
vt 0.134647 0.704904
vt 0.100986 0.758164
vt 0.134647 0.758164
vt 0.100986 0.812337
vt 0.134647 0.812337
vt 0.100986 0.865467
vt 0.134647 0.865467
vt 0.100986 0.915633
vt 0.134647 0.915633
vt 0.100986 0.961021
vt 0.000000 1.000000
vt 0.033662 0.960792
vt 0.033662 1.000000
vt 0.000000 0.960792
vt 0.033662 0.915217
vt 0.000000 0.915217
vt 0.033662 0.864923
vt 0.000000 0.864923
vt 0.033662 0.811727
vt 0.000000 0.811727
vt 0.033662 0.757552
vt 0.000000 0.757552
vt 0.033662 0.704356
vt 0.000000 0.704356
vt 0.033662 0.654062
vt 0.000000 0.654062
vt 0.033662 0.608487
vt 0.000000 0.608487
vt 0.033662 0.569279
vt 0.067324 0.569279
vt 0.033662 0.612101
vt 0.067324 0.612101
vt 0.033662 0.660429
vt 0.067324 0.660429
vt 0.033662 0.712516
vt 0.067324 0.712516
vt 0.033662 0.766481
vt 0.067324 0.766481
vt 0.033662 0.820373
vt 0.067324 0.820373
vt 0.033662 0.872243
vt 0.067324 0.872243
vt 0.033662 0.920218
vt 0.067324 0.920218
vt 0.033662 0.962563
vt 0.067324 0.961234
vt 0.100985 0.921555
vt 0.100985 0.961234
vt 0.067324 0.921555
vt 0.100985 0.875612
vt 0.014462 0.178730
vt 0.267919 0.015350
vt 0.395599 0.364923
vt 0.067324 0.875612
vt 0.100985 0.825067
vt 0.069512 0.816619
vt 0.098851 0.816619
vt 0.557154 0.007710
vt 0.670782 0.553930
vt 0.417324 0.390549
vt 0.905677 0.004804
vt 0.941321 0.985013
vt 0.873523 0.985013
vt 0.970661 0.000000
vt 0.941321 0.984175
vt 0.941321 0.000000
vt 0.837879 0.980210
vt 0.805725 0.000000
vt 0.873523 0.000000
vt 0.970661 0.983736
vt 1.000000 0.000000
vt 1.000000 0.983736
vt 0.163987 0.664649
vt 0.100986 0.771746
vt 0.098851 0.721210
vt 0.098851 0.771746
vt 0.069512 0.771746
vt 0.067324 0.771746
vt 0.067324 0.569279
vt 0.134647 0.961021
vt 0.000000 0.569279
vt 0.067324 0.962563
vt 0.000000 0.284639
vt 0.003648 0.230710
vt 0.032049 0.130578
vt 0.055775 0.087993
vt 0.084782 0.052516
vt 0.118021 0.025429
vt 0.154291 0.007710
vt 0.192282 0.000000
vt 0.230620 0.002578
vt 0.302832 0.037855
vt 0.334097 0.069279
vt 0.360583 0.108488
vt 0.381334 0.154062
vt 0.395599 0.204356
vt 0.402862 0.257552
vt 0.402863 0.311727
vt 0.381334 0.415217
vt 0.360583 0.460792
vt 0.334097 0.500000
vt 0.302832 0.531424
vt 0.267919 0.553929
vt 0.230620 0.566701
vt 0.192282 0.569279
vt 0.154291 0.561569
vt 0.118021 0.543851
vt 0.084781 0.516763
vt 0.055775 0.481286
vt 0.032049 0.438702
vt 0.014462 0.390549
vt 0.003648 0.338569
vt 0.067324 0.825067
vt 0.487645 0.052516
vt 0.520884 0.025429
vt 0.458638 0.087993
vt 0.595145 0.000000
vt 0.633483 0.002578
vt 0.670782 0.015350
vt 0.705695 0.037855
vt 0.736960 0.069280
vt 0.798461 0.204356
vt 0.763446 0.108488
vt 0.784196 0.154062
vt 0.805725 0.257552
vt 0.805725 0.311727
vt 0.798461 0.364923
vt 0.784196 0.415217
vt 0.763446 0.460792
vt 0.736959 0.500000
vt 0.705695 0.531425
vt 0.633482 0.566701
vt 0.595144 0.569279
vt 0.557154 0.561569
vt 0.520883 0.543851
vt 0.487644 0.516763
vt 0.458637 0.481286
vt 0.434911 0.438702
vt 0.406511 0.338569
vt 0.402863 0.284639
vt 0.406511 0.230710
vt 0.417324 0.178729
vt 0.434912 0.130577
vt 0.873523 0.000471
vt 0.970661 0.984176
vt 0.873523 0.985014
vt 0.805725 0.984543
vt 0.970661 0.000000
vn 0.0000 1.0000 0.0000
vn 0.0000 0.9955 -0.0951
vn 0.0000 0.9595 -0.2817
vn 0.0000 0.8888 -0.4582
vn 0.0000 0.7861 -0.6182
vn 0.0000 0.6549 -0.7558
vn 0.0000 0.5000 -0.8660
vn 0.0000 0.3271 -0.9450
vn 0.0000 0.1423 -0.9898
vn 0.0000 -0.0476 -0.9989
vn 0.0000 -0.2358 -0.9718
vn 0.0000 -0.4154 -0.9096
vn 0.0000 -0.5801 -0.8146
vn 0.0000 -0.7237 -0.6901
vn 0.0000 -0.8413 -0.5406
vn 0.0000 -0.9284 -0.3717
vn 0.0000 -0.9819 -0.1893
vn 0.0000 -1.0000 0.0000
vn 0.0000 -0.9819 0.1893
vn 0.0000 -0.9284 0.3717
vn 0.0000 -0.8413 0.5406
vn 0.0000 -0.7237 0.6901
vn 0.0000 -0.5801 0.8146
vn 0.0000 -0.4154 0.9096
vn 0.0000 -0.2358 0.9718
vn 0.0000 -0.0476 0.9989
vn 0.0000 0.1423 0.9898
vn 0.0000 0.3271 0.9450
vn 0.0000 0.5000 0.8660
vn 0.0000 0.6549 0.7557
vn 0.0000 0.7861 0.6182
vn 0.0000 0.8888 0.4582
vn 1.0000 0.0000 0.0000
vn 0.0000 0.9595 0.2817
vn 0.0000 0.9955 0.0951
vn -1.0000 0.0000 0.0000
vn 0.0000 0.0000 -1.0000
vn 0.0000 0.0000 1.0000
s off
f 2/1/1 3/2/1 4/3/1
f 74/4/2 8/5/2 7/6/2
f 8/5/3 9/7/3 7/6/3
f 10/8/4 11/9/4 9/7/4
f 12/10/5 13/11/5 11/9/5
f 14/12/6 15/13/6 13/11/6
f 16/14/7 17/15/7 15/13/7
f 18/16/8 19/17/8 17/15/8
f 20/18/9 21/19/9 19/17/9
f 22/20/10 23/21/10 21/19/10
f 24/22/11 25/23/11 23/21/11
f 26/24/12 27/25/12 25/23/12
f 28/26/13 29/27/13 27/25/13
f 30/28/14 31/29/14 29/30/14
f 32/31/15 33/32/15 31/29/15
f 34/33/16 35/34/16 33/32/16
f 36/35/17 37/36/17 35/34/17
f 38/37/18 39/38/18 37/36/18
f 40/39/19 41/40/19 39/38/19
f 42/41/20 43/42/20 41/40/20
f 44/43/21 45/44/21 43/42/21
f 46/45/22 47/46/22 45/44/22
f 48/47/23 49/48/23 47/46/23
f 50/49/24 51/50/24 49/48/24
f 52/51/25 53/52/25 51/50/25
f 54/53/26 55/54/26 53/52/26
f 56/55/27 57/56/27 55/54/27
f 58/57/28 59/58/28 57/56/28
f 60/59/29 61/60/29 59/58/29
f 62/61/30 63/62/30 61/60/30
f 64/63/31 65/64/31 63/65/31
f 66/66/32 67/67/32 65/64/32
f 6/68/33 56/69/33 40/70/33
f 68/71/34 69/72/34 67/67/34
f 73/73/35 72/74/35 69/72/35
f 7/75/36 39/76/36 55/77/36
f 75/78/33 4/79/33 3/80/33
f 76/81/37 4/82/37 74/83/37
f 71/84/36 1/85/36 2/86/36
f 73/87/38 1/88/38 72/89/38
f 2/1/1 1/90/1 3/2/1
f 7/6/2 5/91/2 76/92/2
f 5/91/2 71/93/2 76/92/2
f 75/94/2 6/95/2 74/4/2
f 6/95/2 8/5/2 74/4/2
f 7/6/2 76/92/2 74/4/2
f 8/5/3 10/8/3 9/7/3
f 10/8/4 12/10/4 11/9/4
f 12/10/5 14/96/5 13/11/5
f 14/12/6 16/14/6 15/13/6
f 16/14/7 18/16/7 17/15/7
f 18/16/8 20/18/8 19/17/8
f 20/18/9 22/20/9 21/19/9
f 22/20/10 24/22/10 23/21/10
f 24/22/11 26/24/11 25/23/11
f 26/24/12 28/26/12 27/25/12
f 28/26/13 30/97/13 29/27/13
f 30/28/14 32/31/14 31/29/14
f 32/31/15 34/33/15 33/32/15
f 34/33/16 36/35/16 35/34/16
f 36/35/17 38/37/17 37/36/17
f 38/37/18 40/39/18 39/38/18
f 40/39/19 42/41/19 41/40/19
f 42/41/20 44/43/20 43/42/20
f 44/43/21 46/45/21 45/44/21
f 46/45/22 48/98/22 47/46/22
f 48/47/23 50/49/23 49/48/23
f 50/49/24 52/51/24 51/50/24
f 52/51/25 54/53/25 53/52/25
f 54/53/26 56/55/26 55/54/26
f 56/55/27 58/57/27 57/56/27
f 58/57/28 60/59/28 59/58/28
f 60/59/29 62/61/29 61/60/29
f 62/61/30 64/99/30 63/62/30
f 64/63/31 66/66/31 65/64/31
f 66/66/32 68/71/32 67/67/32
f 10/100/33 8/101/33 6/68/33
f 6/68/33 70/102/33 68/103/33
f 68/103/33 66/104/33 6/68/33
f 66/104/33 64/105/33 6/68/33
f 64/105/33 62/106/33 60/107/33
f 60/107/33 58/108/33 56/69/33
f 56/69/33 54/109/33 52/110/33
f 52/110/33 50/111/33 56/69/33
f 50/111/33 48/112/33 56/69/33
f 48/112/33 46/113/33 44/114/33
f 44/114/33 42/115/33 40/70/33
f 40/70/33 38/116/33 36/117/33
f 36/117/33 34/118/33 32/119/33
f 32/119/33 30/120/33 28/121/33
f 28/121/33 26/122/33 24/123/33
f 24/123/33 22/124/33 20/125/33
f 20/125/33 18/126/33 24/123/33
f 18/126/33 16/127/33 24/123/33
f 16/127/33 14/128/33 12/129/33
f 12/129/33 10/100/33 6/68/33
f 64/105/33 60/107/33 6/68/33
f 60/107/33 56/69/33 6/68/33
f 48/112/33 44/114/33 56/69/33
f 44/114/33 40/70/33 56/69/33
f 40/70/33 36/117/33 32/119/33
f 32/119/33 28/121/33 24/123/33
f 16/127/33 12/129/33 24/123/33
f 12/129/33 6/68/33 24/123/33
f 40/70/33 32/119/33 6/68/33
f 32/119/33 24/123/33 6/68/33
f 68/71/34 70/130/34 69/72/34
f 70/130/35 6/95/35 73/73/35
f 6/95/35 75/94/35 73/73/35
f 71/93/35 5/91/35 72/74/35
f 5/91/35 69/72/35 72/74/35
f 70/130/35 73/73/35 69/72/35
f 69/131/36 5/132/36 67/133/36
f 5/132/36 7/75/36 67/133/36
f 7/75/36 9/134/36 11/135/36
f 11/135/36 13/136/36 15/137/36
f 15/137/36 17/138/36 23/139/36
f 17/138/36 19/140/36 23/139/36
f 19/140/36 21/141/36 23/139/36
f 23/139/36 25/142/36 27/143/36
f 27/143/36 29/144/36 31/145/36
f 31/145/36 33/146/36 35/147/36
f 35/147/36 37/148/36 39/76/36
f 39/76/36 41/149/36 43/150/36
f 43/150/36 45/151/36 47/152/36
f 47/152/36 49/153/36 55/77/36
f 49/153/36 51/154/36 55/77/36
f 51/154/36 53/155/36 55/77/36
f 55/77/36 57/156/36 59/157/36
f 59/157/36 61/158/36 63/159/36
f 63/159/36 65/160/36 7/75/36
f 65/160/36 67/133/36 7/75/36
f 7/75/36 11/135/36 23/139/36
f 11/135/36 15/137/36 23/139/36
f 23/139/36 27/143/36 31/145/36
f 31/145/36 35/147/36 39/76/36
f 39/76/36 43/150/36 55/77/36
f 43/150/36 47/152/36 55/77/36
f 55/77/36 59/157/36 7/75/36
f 59/157/36 63/159/36 7/75/36
f 23/139/36 31/145/36 7/75/36
f 31/145/36 39/76/36 7/75/36
f 3/80/33 73/161/33 75/78/33
f 75/78/33 74/83/33 4/79/33
f 76/81/37 2/162/37 4/82/37
f 2/86/36 76/163/36 71/84/36
f 71/84/36 72/164/36 1/85/36
f 73/87/38 3/165/38 1/88/38
